<svg width="50" height="58" viewBox="0 0 50 58" fill="none" xmlns="http://www.w3.org/2000/svg">
<path d="M32.49 31.97L35.52 35.61L29.25 43.5L25.51 40.97L32.49 31.97Z" fill="white"/>
<path d="M19.24 31.97L25.51 40.97L21.46 43.5L16.91 35.41L19.24 31.97Z" fill="white"/>
<path d="M27.23 49.57H24.6V52.2H27.23V49.57ZM27.23 48.66V46.03H24.6V48.66H27.23ZM11.55 55.74H2.04001V38.54L16.91 35.4L21.46 43.39L25.51 40.86L29.25 43.39L35.52 35.5L48.27 39.75V55.63H38.86L11.55 55.74Z" fill="#36AD37"/>
<path d="M33.6 25.8C31.68 28.94 28.95 31.26 25.71 31.26C18.73 31.26 14.89 20.74 14.89 14.87C14.89 13.96 14.89 13.25 15.09 12.44C15.7 12.64 16.3 12.84 17.01 12.84H29.35C29.96 12.84 30.46 12.74 30.87 12.54C31.27 12.34 31.58 12.03 31.78 11.63L36.33 13.96C36.43 14.77 36.53 15.58 36.43 16.39C36.33 19.42 35.32 22.96 33.6 25.8Z" fill="white"/>
<path d="M15.09 12.54C13.57 11.93 12.56 10.62 12.56 8.89999V4.25H14.68H28.84C30.05 4.25 30.46 5.16001 31.07 6.17001C31.17 6.37001 31.17 6.46999 31.27 6.67999L36.23 9.72V14.07L31.68 11.74C31.48 12.15 31.17 12.45 30.77 12.65C30.37 12.85 29.86 12.95 29.25 12.95H16.91C16.3 12.85 15.59 12.75 15.09 12.54Z" fill="white"/>
<path d="M27.23 49.57H24.6V52.2H27.23V49.57Z" fill="#091A33"/>
<path d="M27.23 46.03H24.6V48.66H27.23V46.03Z" fill="#091A33"/>
<path d="M11.55 57.05H2.04001C1.33001 57.05 0.730011 56.44 0.730011 55.74V38.54C0.730011 37.93 1.12999 37.43 1.73999 37.33L16.61 34.19C17.32 34.09 17.92 34.49 18.13 35.2C18.23 35.91 17.83 36.51 17.12 36.72L3.35999 39.65V54.52H11.55C12.26 54.52 12.87 55.13 12.87 55.83C12.86 56.45 12.26 57.05 11.55 57.05Z" fill="#091A33"/>
<path d="M48.37 57.05H38.86C38.15 57.05 37.55 56.44 37.55 55.74C37.55 55.03 38.16 54.42 38.86 54.42H47.05V40.86L35.11 36.92C34.4 36.72 34.1 36.01 34.3 35.3C34.5 34.59 35.21 34.29 35.92 34.49L48.67 38.74C49.18 38.94 49.58 39.35 49.58 39.95V55.83C49.58 56.45 48.98 57.05 48.37 57.05Z" fill="#091A33"/>
<path d="M38.86 57.05H11.55C10.84 57.05 10.24 56.44 10.24 55.74V46.53C10.24 45.82 10.85 45.22 11.55 45.22C12.26 45.22 12.87 45.83 12.87 46.53V54.52H37.65V46.53C37.65 45.82 38.26 45.22 38.96 45.22C39.67 45.22 40.28 45.83 40.28 46.53V55.74C40.07 56.45 39.57 57.05 38.86 57.05Z" fill="#091A33"/>
<path d="M25.71 32.47C22.17 32.47 18.93 30.14 16.61 25.79C14.79 22.55 13.68 18.2 13.68 14.87C13.68 13.96 13.68 13.15 13.88 12.24C13.98 11.63 14.49 11.23 15.09 11.23C15.8 11.23 16.41 11.84 16.41 12.54C16.41 12.64 16.41 12.74 16.41 12.84C16.31 13.45 16.31 14.16 16.31 14.96C16.31 17.89 17.32 21.74 18.94 24.67C20.25 27.1 22.58 30.03 25.82 30.03C29.26 30.03 31.59 26.99 32.6 25.17C34.12 22.54 35.13 19.3 35.23 16.37C35.23 15.56 35.23 14.85 35.13 14.14C35.03 13.43 35.43 12.82 36.14 12.72C36.85 12.62 37.45 13.02 37.56 13.73C37.66 14.54 37.76 15.45 37.76 16.46C37.66 19.8 36.55 23.44 34.83 26.47C32.39 30.35 29.15 32.47 25.71 32.47Z" fill="#091A33"/>
<path d="M36.23 15.17C36.03 15.17 35.83 15.17 35.62 15.07L31.98 13.15C31.78 13.35 31.58 13.45 31.37 13.55C30.76 13.85 30.06 14.06 29.25 14.06H16.91C16.1 14.06 15.29 13.86 14.58 13.55C12.56 12.74 11.34 10.92 11.34 8.79999V4.14999C11.34 3.43999 11.95 2.84 12.65 2.84H28.94C30.86 2.84 31.57 4.26001 32.18 5.17001L32.28 5.37C32.28 5.37 32.28 5.37 32.28 5.47V5.57001V5.67001L36.93 8.5C37.33 8.7 37.54 9.10999 37.54 9.60999V13.96C37.54 14.37 37.34 14.77 36.93 15.07C36.74 15.17 36.43 15.17 36.23 15.17ZM31.68 10.32C31.88 10.32 32.08 10.32 32.29 10.42L35.02 11.84V10.32L30.67 7.69C30.37 7.49 30.16 7.29001 30.16 6.98001C30.16 6.98001 30.16 6.88 30.06 6.78L29.96 6.67999C29.45 5.66999 29.25 5.57001 28.95 5.57001H13.88V9C13.88 10.11 14.49 10.92 15.6 11.43C16 11.63 16.51 11.73 17.02 11.73H29.36C29.76 11.73 29.97 11.63 30.17 11.53C30.37 11.43 30.47 11.33 30.57 11.13C30.87 10.52 31.27 10.32 31.68 10.32Z" fill="#091A33"/>
<path d="M21.46 44.71C21.36 44.71 21.26 44.71 21.16 44.71C20.86 44.61 20.55 44.41 20.35 44.1L15.8 36.11C15.6 35.7 15.6 35.2 15.9 34.79L18.33 31.35C18.53 31.05 18.94 30.84 19.34 30.84C19.74 30.84 20.15 31.04 20.35 31.35L26.62 40.35C26.82 40.65 26.92 40.96 26.82 41.36C26.72 41.66 26.52 41.97 26.21 42.17L22.16 44.7C21.87 44.71 21.66 44.71 21.46 44.71ZM18.33 35.51L21.87 41.68L23.69 40.57L19.24 34.2L18.33 35.51Z" fill="#091A33"/>
<path d="M29.25 44.71C29.05 44.71 28.74 44.61 28.54 44.51L24.8 41.98C24.5 41.78 24.29 41.47 24.29 41.17C24.19 40.87 24.29 40.46 24.49 40.16L31.47 31.16C31.67 30.86 32.08 30.65 32.48 30.65C32.88 30.65 33.19 30.85 33.49 31.06L36.52 34.7C36.92 35.21 36.92 35.81 36.52 36.32L30.25 44.21C29.96 44.61 29.66 44.71 29.25 44.71ZM27.33 40.67L29.05 41.78L33.91 35.61L32.49 33.99L27.33 40.67Z" fill="#091A33"/>
<path d="M25.81 28.32C25.2 28.32 24.7 27.91 24.6 27.31C24.5 26.6 24.9 25.99 25.61 25.89L38.25 23.76L35.32 16.98C35.02 16.37 35.32 15.56 36.03 15.36C36.64 15.06 37.45 15.36 37.65 16.07L41.19 24.36C41.39 24.76 41.29 25.17 41.09 25.47C40.89 25.77 40.58 26.08 40.18 26.08L26.02 28.31C25.91 28.32 25.91 28.32 25.81 28.32Z" fill="#091A33"/>
<path d="M9.22 31.56C8.51 31.56 7.89999 30.95 7.89999 30.25V18.52C7.89999 17.81 8.51 17.2 9.22 17.2C9.93 17.2 10.54 17.81 10.54 18.52V30.35C10.44 31.06 9.93 31.56 9.22 31.56Z" fill="#091A33"/>
<path d="M5.67999 29.23C4.96999 29.23 4.37 28.62 4.37 27.91V12.53C4.37 11.82 4.97999 11.22 5.67999 11.22C6.38999 11.22 7 11.83 7 12.53V27.91C6.89 28.63 6.38999 29.23 5.67999 29.23Z" fill="#091A33"/>
<path d="M48.37 20.94C47.66 20.94 47.05 20.33 47.05 19.62V7.79001C47.05 7.08001 47.66 6.47 48.37 6.47C49.08 6.47 49.68 7.08001 49.68 7.79001V19.62C49.58 20.33 48.98 20.94 48.37 20.94Z" fill="#091A33"/>
<path d="M44.73 18.51C44.02 18.51 43.41 17.9 43.41 17.19V1.92001C43.41 1.21001 44.02 0.600006 44.73 0.600006C45.44 0.600006 46.05 1.21001 46.05 1.92001V17.3C46.04 18.01 45.44 18.51 44.73 18.51Z" fill="#091A33"/>
</svg>
