<svg width="59" height="62" viewBox="0 0 59 62" fill="none" xmlns="http://www.w3.org/2000/svg">
<path d="M57.02 48.3C57.02 50.12 55.6 51.54 53.78 51.54C51.86 51.54 6.93999 51.54 4.62 51.54C2.8 51.54 1.38 50.12 1.38 48.3V14.31C1.38 12.49 2.8 11.07 4.62 11.07C4.62 11.07 48.32 11.07 53.78 11.07C55.6 11.07 57.02 12.49 57.02 14.31C57.02 17.75 57.02 44.86 57.02 48.3Z" fill="white"/>
<path d="M5.23001 14.92C5.23001 14.92 52.98 14.92 53.28 14.92C53.28 15.73 53.28 43.04 53.28 44.05H5.23001C5.23001 42.23 5.23001 15.73 5.23001 14.92Z" fill="#36AD37"/>
<path d="M50.04 3.49002C51.05 3.49002 51.96 4.30002 51.96 5.41002C51.96 6.52002 51.15 7.33002 50.04 7.33002C48.93 7.33002 48.12 6.52002 48.12 5.41002C48.12 4.30002 49.03 3.49002 50.04 3.49002Z" fill="white"/>
<path d="M8.97 2.27002C10.39 2.27002 11.5 3.38002 11.5 4.80002C11.5 6.22002 10.39 7.33002 8.97 7.33002C7.55 7.33002 6.44 6.22002 6.44 4.80002C6.44 3.39002 7.56 2.27002 8.97 2.27002Z" fill="white"/>
<path d="M42.25 17.35V24.93L35.78 28.68L29.2 24.93V17.35L35.78 13.6L37.9 14.92L42.25 17.35Z" fill="white"/>
<path d="M29.2 17.35V24.93L22.63 28.68L16.16 24.93V17.35L20.5 14.92L22.63 13.6L29.2 17.35Z" fill="white"/>
<path d="M35.78 11.07V13.6L29.2 17.35L22.63 13.6V11.07V6.02002L29.2 2.27002L35.78 6.02002V11.07Z" fill="white"/>
<path d="M39.83 56.09C40.34 56.6 40.54 57.2 40.54 57.91C40.54 59.33 39.43 60.44 38.01 60.44H20.41C19.7 60.44 19.09 60.14 18.59 59.73C18.08 59.33 17.88 58.62 17.88 57.91C17.88 57.2 18.18 56.59 18.59 56.09C19.1 55.58 19.7 55.38 20.41 55.38C21.42 55.38 22.43 54.98 23.14 54.27C23.75 53.56 24.15 52.55 24.15 51.54H34.27C34.27 52.55 34.67 53.56 35.38 54.27C36.09 54.98 37 55.38 38.11 55.38C38.71 55.38 39.42 55.58 39.83 56.09Z" fill="white"/>
<path d="M57.93 6.42001C58.13 6.62001 58.33 6.93002 58.33 7.33002C58.33 7.63002 58.23 8.04002 57.93 8.24002C57.63 8.44002 57.42 8.65001 57.02 8.65001C56.31 8.65001 55.71 8.04002 55.71 7.33002C55.71 7.03002 55.81 6.62001 56.11 6.42001C56.31 6.22001 56.62 6.02002 57.02 6.02002C57.43 6.02002 57.73 6.12001 57.93 6.42001Z" fill="#091A33"/>
<path d="M46.5 27.87C46.7 28.07 46.9 28.38 46.9 28.78C46.9 29.18 46.8 29.49 46.5 29.69C46.3 29.89 45.99 30.09 45.59 30.09C44.88 30.09 44.27 29.48 44.27 28.78C44.27 28.48 44.37 28.07 44.67 27.87C44.87 27.67 45.18 27.47 45.58 27.47C46 27.46 46.3 27.66 46.5 27.87Z" fill="#091A33"/>
<path d="M46.5 37.98C46.7 38.18 46.9 38.49 46.9 38.89C46.9 39.3 46.8 39.6 46.5 39.8C46.3 40 45.99 40.2 45.59 40.2C44.88 40.2 44.27 39.59 44.27 38.88C44.27 38.58 44.37 38.17 44.67 37.97C44.87 37.77 45.18 37.57 45.58 37.57C46 37.58 46.3 37.78 46.5 37.98Z" fill="#091A33"/>
<path d="M46.5 54.47C46.7 54.67 46.9 54.98 46.9 55.38C46.9 55.68 46.8 56.09 46.5 56.29C46.3 56.49 45.99 56.7 45.59 56.7C44.88 56.7 44.27 56.09 44.27 55.38C44.27 55.08 44.37 54.67 44.67 54.47C44.87 54.27 45.18 54.06 45.58 54.06C46 54.07 46.3 54.17 46.5 54.47Z" fill="#091A33"/>
<path d="M42.76 3.89C42.96 4.09 43.16 4.4 43.16 4.8C43.16 5.2 43.06 5.51001 42.76 5.71001C42.46 5.91001 42.15 6.00999 41.85 6.00999C41.14 6.00999 40.53 5.4 40.53 4.69C40.53 4.39 40.63 3.98 40.93 3.78C41.13 3.58 41.44 3.37 41.84 3.37C42.25 3.39 42.56 3.59 42.76 3.89Z" fill="#091A33"/>
<path d="M30.12 46.88C30.32 47.08 30.52 47.39 30.52 47.79C30.52 48.09 30.42 48.5 30.12 48.7C29.92 48.9 29.61 49.1 29.21 49.1C28.5 49.1 27.89 48.49 27.89 47.79C27.89 47.49 27.99 47.08 28.29 46.88C28.59 46.68 28.9 46.47 29.2 46.47C29.51 46.48 29.91 46.58 30.12 46.88Z" fill="#091A33"/>
<path d="M18.68 5.11001C18.88 5.31001 19.08 5.62001 19.08 6.02001C19.08 6.42001 18.98 6.73 18.68 6.93C18.38 7.13 18.17 7.33001 17.77 7.33001C17.06 7.33001 16.45 6.72001 16.45 6.02001C16.45 5.72001 16.55 5.31001 16.85 5.11001C17.15 4.91001 17.36 4.71002 17.76 4.71002C18.18 4.70002 18.48 4.90001 18.68 5.11001Z" fill="#091A33"/>
<path d="M13.63 19.07C13.83 19.27 14.03 19.58 14.03 19.98C14.03 20.38 13.93 20.69 13.63 20.89C13.43 21.09 13.12 21.29 12.72 21.29C12.01 21.29 11.4 20.68 11.4 19.98C11.4 19.68 11.5 19.27 11.8 19.07C12 18.87 12.31 18.67 12.71 18.67C13.12 18.66 13.42 18.76 13.63 19.07Z" fill="#091A33"/>
<path d="M13.63 54.47C13.83 54.67 14.03 54.98 14.03 55.38C14.03 56.09 13.42 56.7 12.72 56.7C12.42 56.7 12.01 56.6 11.81 56.29C11.61 56.09 11.41 55.78 11.41 55.38C11.41 55.08 11.51 54.67 11.81 54.47C12.11 54.27 12.32 54.06 12.72 54.06C13.12 54.07 13.42 54.17 13.63 54.47Z" fill="#091A33"/>
<path d="M3.51001 5.11001C3.71001 5.31001 3.91 5.62001 3.91 6.02001C3.91 6.42001 3.81001 6.73 3.51001 6.93C3.31001 7.13 3.00001 7.33001 2.60001 7.33001C1.89001 7.33001 1.28 6.72001 1.28 6.02001C1.28 5.72001 1.37999 5.31001 1.67999 5.11001C1.87999 4.91001 2.19 4.71002 2.59 4.71002C3 4.70002 3.31001 4.90001 3.51001 5.11001Z" fill="#091A33"/>
<path d="M38.11 61.65H20.41C19.4 61.65 18.49 61.25 17.68 60.54C16.97 59.83 16.57 58.82 16.57 57.81C16.57 56.8 16.97 55.89 17.68 55.08C18.39 54.37 19.4 53.97 20.41 53.97C21.12 53.97 21.73 53.67 22.23 53.26C22.74 52.75 22.94 52.15 22.94 51.44C22.94 50.73 23.55 50.12 24.25 50.12C24.96 50.12 25.57 50.73 25.57 51.44C25.57 52.76 25.06 54.07 24.05 54.98C23.14 55.89 21.82 56.5 20.51 56.5C20.21 56.5 19.9 56.6 19.6 56.91C19.4 57.11 19.2 57.52 19.2 57.82C19.2 58.12 19.3 58.43 19.6 58.73C19.8 58.93 20.11 59.14 20.51 59.14H38.21C38.92 59.14 39.52 58.53 39.52 57.82C39.52 57.52 39.42 57.21 39.12 56.91C38.92 56.71 38.61 56.5 38.21 56.5C36.89 56.5 35.58 55.99 34.67 54.98C33.76 53.97 33.15 52.75 33.15 51.44C33.15 50.73 33.76 50.12 34.46 50.12C35.17 50.12 35.78 50.73 35.78 51.44C35.78 52.15 36.08 52.76 36.49 53.26C37 53.77 37.6 53.97 38.31 53.97C39.32 53.97 40.23 54.37 41.04 55.08C41.75 55.79 42.15 56.8 42.15 57.81C41.85 59.93 40.13 61.65 38.11 61.65Z" fill="#091A33"/>
<path d="M53.28 56.6H49.44C48.73 56.6 48.13 55.99 48.13 55.28C48.13 54.57 48.74 53.97 49.44 53.97H53.28C53.99 53.97 54.6 54.58 54.6 55.28C54.49 55.99 53.89 56.6 53.28 56.6Z" fill="#091A33"/>
<path d="M8.97 56.6H5.13C4.42 56.6 3.81 55.99 3.81 55.28C3.81 54.57 4.42 53.97 5.13 53.97H8.97C9.68 53.97 10.29 54.58 10.29 55.28C10.29 55.99 9.68 56.6 8.97 56.6Z" fill="#091A33"/>
<path d="M53.28 45.27H5.23001C4.52001 45.27 3.92001 44.66 3.92001 43.96V14.93C3.92001 14.22 4.53001 13.62 5.23001 13.62H20.5C21.21 13.62 21.82 14.23 21.82 14.93C21.82 15.64 21.21 16.14 20.5 16.14H6.44V42.75H51.96V16.14H37.9C37.19 16.14 36.58 15.53 36.58 14.83C36.58 14.12 37.19 13.51 37.9 13.51H53.17C53.88 13.51 54.49 14.12 54.49 14.83V43.96C54.49 44.66 53.89 45.27 53.28 45.27Z" fill="#091A33"/>
<path d="M53.79 52.85H4.63C2.1 52.85 0.0799866 50.83 0.0799866 48.3V14.31C0.0799866 11.78 2.1 9.76003 4.63 9.76003H22.64C23.35 9.76003 23.95 10.37 23.95 11.08C23.95 11.79 23.34 12.39 22.64 12.39H4.63C3.52 12.39 2.60999 13.3 2.60999 14.41V48.4C2.60999 49.51 3.52 50.42 4.63 50.42H53.79C54.9 50.42 55.81 49.51 55.81 48.4V14.31C55.81 13.2 54.9 12.29 53.79 12.29H35.78C35.07 12.29 34.46 11.68 34.46 10.97C34.46 10.26 35.07 9.66003 35.78 9.66003H53.79C56.32 9.66003 58.34 11.68 58.34 14.21V48.2C58.34 50.73 56.21 52.85 53.79 52.85Z" fill="#091A33"/>
<path d="M41.85 40.21H5.23001C4.52001 40.21 3.92001 39.6 3.92001 38.89C3.92001 38.18 4.53001 37.58 5.23001 37.58H41.95C42.66 37.58 43.26 38.19 43.26 38.89C43.26 39.59 42.56 40.21 41.85 40.21Z" fill="#091A33"/>
<path d="M22.63 29.99C22.43 29.99 22.23 29.89 22.02 29.79L15.44 26.05C15.04 25.85 14.83 25.44 14.83 24.94V17.35C14.83 16.95 15.03 16.44 15.44 16.24L22.02 12.5C22.63 12.2 23.44 12.4 23.74 13.01C24.04 13.62 23.84 14.43 23.23 14.73L17.36 18.17V24.24L22.62 27.28L28.49 23.84C29.1 23.54 29.91 23.74 30.21 24.35C30.51 24.96 30.31 25.77 29.7 26.07L23.12 29.81C23.14 29.89 22.93 29.99 22.63 29.99Z" fill="#091A33"/>
<path d="M35.78 29.99C35.58 29.99 35.38 29.89 35.17 29.79L28.59 26.05C28.19 25.85 27.98 25.44 27.98 24.94V17.35C27.98 16.64 28.59 16.04 29.3 16.04C30.01 16.04 30.62 16.65 30.62 17.35V24.23L35.88 27.27L41.14 24.23V18.16L35.27 14.72C34.66 14.42 34.46 13.61 34.76 13C35.06 12.39 35.87 12.19 36.48 12.49L43.06 16.23C43.46 16.43 43.67 16.84 43.67 17.34V24.93C43.67 25.34 43.47 25.84 43.06 26.04L36.48 29.78C36.18 29.89 35.98 29.99 35.78 29.99Z" fill="#091A33"/>
<path d="M29.2 18.66C29 18.66 28.8 18.56 28.59 18.46L22.01 14.72C21.61 14.52 21.4 14.11 21.4 13.61V6.02003C21.4 5.61003 21.6 5.11002 22.01 4.91003L28.59 1.17002C28.99 0.97002 29.5 0.97002 29.91 1.17002L36.49 4.91003C36.89 5.11002 37.1 5.52003 37.1 6.02003V13.61C37.1 14.01 36.9 14.52 36.49 14.72L29.91 18.46C29.61 18.56 29.41 18.66 29.2 18.66ZM23.94 12.89L29.2 15.93L34.46 12.89V6.82003L29.2 3.79001L23.94 6.82003V12.89Z" fill="#091A33"/>
<path d="M16.56 36.36H10.19C9.48 36.36 8.87 35.75 8.87 35.04C8.87 34.33 9.48 33.72 10.19 33.72H16.56C17.27 33.72 17.88 34.33 17.88 35.04C17.88 35.76 17.27 36.36 16.56 36.36Z" fill="#091A33"/>
<path d="M14.03 32.62H10.19C9.48 32.62 8.87 32.01 8.87 31.3C8.87 30.59 9.48 29.99 10.19 29.99H14.03C14.74 29.99 15.35 30.6 15.35 31.3C15.35 32.01 14.74 32.62 14.03 32.62Z" fill="#091A33"/>
<path d="M12.82 28.78H10.29C9.58001 28.78 8.97 28.17 8.97 27.46C8.97 26.75 9.58001 26.14 10.29 26.14H12.82C13.53 26.14 14.14 26.75 14.14 27.46C14.03 28.17 13.42 28.78 12.82 28.78Z" fill="#091A33"/>
<path d="M8.97 8.54001C6.85 8.54001 5.13 6.82001 5.13 4.70001C5.13 2.58001 6.85 0.960022 8.97 0.960022C11.09 0.960022 12.81 2.68002 12.81 4.80002C12.82 6.93002 11.1 8.54001 8.97 8.54001ZM8.97 3.49002C8.26 3.49002 7.64999 4.10001 7.64999 4.81001C7.64999 5.52001 8.26 6.12001 8.97 6.12001C9.68 6.12001 10.29 5.51001 10.29 4.81001C10.29 4.09001 9.68 3.49002 8.97 3.49002Z" fill="#091A33"/>
<path d="M50.04 8.54001C48.32 8.54001 46.9 7.12001 46.9 5.40001C46.9 3.68001 48.32 2.26001 50.04 2.26001C51.76 2.26001 53.18 3.68001 53.18 5.40001C53.18 7.13001 51.76 8.54001 50.04 8.54001ZM50.04 4.80002C49.74 4.80002 49.43 5.10002 49.43 5.41002C49.43 5.71002 49.73 6.02002 50.04 6.02002C50.35 6.02002 50.65 5.72002 50.65 5.41002C50.65 5.11002 50.45 4.80002 50.04 4.80002Z" fill="#091A33"/>
<path d="M53.28 30.09H49.44C48.73 30.09 48.13 29.48 48.13 28.78C48.13 28.07 48.74 27.46 49.44 27.46H53.28C53.99 27.46 54.6 28.07 54.6 28.78C54.49 29.49 53.89 30.09 53.28 30.09Z" fill="#091A33"/>
<path d="M8.97 21.19H5.13C4.42 21.19 3.81 20.58 3.81 19.87C3.81 19.16 4.42 18.55 5.13 18.55H8.97C9.68 18.55 10.29 19.16 10.29 19.87C10.29 20.58 9.68 21.19 8.97 21.19Z" fill="#091A33"/>
</svg>
