<svg width="59" height="56" viewBox="0 0 59 56" fill="none" xmlns="http://www.w3.org/2000/svg">
<path d="M33.95 50.73C34.96 50.73 35.87 51.54 35.87 52.65C35.87 53.66 35.06 54.57 33.95 54.57C32.84 54.57 32.03 53.76 32.03 52.65C32.03 51.54 32.84 50.73 33.95 50.73Z" fill="white"/>
<path d="M49.12 40.61C51.35 40.61 53.47 41.52 54.89 43.04C56.41 44.56 57.32 46.58 57.32 48.81V53.26H52.26H45.89H40.83V48.81C40.83 47.6 41.03 46.58 41.54 45.57C42.85 42.63 45.68 40.61 49.12 40.61Z" fill="white"/>
<path d="M9.87 40.61C12.1 40.61 14.22 41.52 15.64 43.04C16.35 43.75 16.96 44.66 17.36 45.57C17.76 46.58 18.07 47.69 18.07 48.81V53.26H13.01H6.64001H1.57999V48.81C1.67999 44.25 5.31999 40.61 9.87 40.61Z" fill="white"/>
<path d="M32.63 24.12H29.49H26.35H21.29V19.67C21.29 15.12 24.93 11.48 29.48 11.48C31.71 11.48 33.83 12.39 35.25 13.91C36.77 15.43 37.68 17.45 37.68 19.68V24.13H32.63V24.12Z" fill="white"/>
<path d="M50.34 9.54999C52.06 9.54999 53.48 10.97 53.48 12.69C53.48 14.41 52.06 15.83 50.34 15.83C48.62 15.83 47.2 14.41 47.2 12.69C47.2 10.97 48.62 9.54999 50.34 9.54999Z" fill="#36AD37"/>
<path d="M6.73999 15.93C8.15999 15.93 9.26999 17.04 9.26999 18.46C9.26999 19.88 8.15999 20.99 6.73999 20.99C5.31999 20.99 4.20999 19.88 4.20999 18.46C4.20999 17.04 5.31999 15.93 6.73999 15.93Z" fill="#36AD37"/>
<path d="M29.5 24.12L41.54 45.47H17.46L29.5 24.12Z" fill="#36AD37"/>
<path d="M49.12 30.49C51.91 30.49 54.18 32.75 54.18 35.55C54.18 38.34 51.92 40.61 49.12 40.61C46.33 40.61 44.06 38.35 44.06 35.55C44.06 32.76 46.33 30.49 49.12 30.49Z" fill="#36AD37"/>
<path d="M9.87 30.49C12.66 30.49 14.93 32.75 14.93 35.55C14.93 38.34 12.67 40.61 9.87 40.61C7.08 40.61 4.81 38.35 4.81 35.55C4.81 32.76 7.08 30.49 9.87 30.49Z" fill="#36AD37"/>
<path d="M29.5 1.35999C32.29 1.35999 34.56 3.62001 34.56 6.42001C34.56 9.21001 32.3 11.48 29.5 11.48C26.71 11.48 24.44 9.22001 24.44 6.42001C24.44 3.63001 26.7 1.35999 29.5 1.35999Z" fill="#36AD37"/>
<path d="M51.04 23.51C51.75 23.51 52.35 24.12 52.35 24.83C52.35 25.54 51.74 26.14 51.04 26.14C50.33 26.14 49.72 25.43 49.72 24.72C49.73 24.02 50.34 23.51 51.04 23.51Z" fill="#091A33"/>
<path d="M43.46 4.5C44.17 4.5 44.77 5.11 44.77 5.81C44.77 6.51 44.16 7.13 43.46 7.13C42.75 7.13 42.14 6.52 42.14 5.81C42.14 5.1 42.75 4.5 43.46 4.5Z" fill="#091A33"/>
<path d="M25.75 50.73C26.46 50.73 27.07 51.34 27.07 52.05C27.07 52.76 26.46 53.36 25.75 53.36C25.04 53.36 24.44 52.65 24.44 51.94C24.44 51.23 25.05 50.73 25.75 50.73Z" fill="#091A33"/>
<path d="M16.85 7.03C17.56 7.03 18.16 7.64001 18.16 8.35001C18.16 9.06001 17.55 9.66 16.85 9.66C16.14 9.66 15.54 9.05001 15.54 8.35001C15.64 7.63001 16.14 7.03 16.85 7.03Z" fill="#091A33"/>
<path d="M9.26999 24.73C9.97999 24.73 10.58 25.34 10.58 26.04C10.58 26.74 9.96999 27.36 9.26999 27.36C8.56999 27.36 7.95001 26.75 7.95001 26.04C8.05001 25.34 8.55999 24.73 9.26999 24.73Z" fill="#091A33"/>
<path d="M4.20999 3.89001C4.91999 3.89001 5.53 4.49999 5.53 5.20999C5.53 5.91999 4.91999 6.51999 4.20999 6.51999C3.49999 6.51999 2.89001 5.90999 2.89001 5.20999C2.99001 4.49999 3.49999 3.89001 4.20999 3.89001Z" fill="#091A33"/>
<path d="M29.5 12.79C26.06 12.79 23.13 9.96001 23.13 6.42001C23.13 2.88001 25.96 0.0499878 29.5 0.0499878C33.04 0.0499878 35.87 2.88001 35.87 6.42001C35.87 9.96001 32.94 12.79 29.5 12.79ZM29.5 2.67999C27.38 2.67999 25.66 4.39999 25.66 6.51999C25.66 8.63999 27.38 10.36 29.5 10.36C31.62 10.36 33.34 8.63999 33.34 6.51999C33.34 4.39999 31.62 2.67999 29.5 2.67999Z" fill="#091A33"/>
<path d="M37.69 25.44H21.3C20.59 25.44 19.98 24.83 19.98 24.13V19.68C19.98 14.42 24.23 10.17 29.49 10.17C32.02 10.17 34.45 11.18 36.17 12.9C37.99 14.72 38.9 17.05 38.9 19.58V24.13C39.01 24.83 38.4 25.44 37.69 25.44ZM22.52 22.91H36.48V19.77C36.48 17.95 35.77 16.13 34.46 14.81C33.15 13.49 31.43 12.79 29.5 12.79C25.66 12.79 22.52 15.93 22.52 19.77V22.91Z" fill="#091A33"/>
<path d="M26.36 25.44C25.65 25.44 25.04 24.83 25.04 24.13V20.29C25.04 19.58 25.65 18.98 26.36 18.98C27.07 18.98 27.68 19.59 27.68 20.29V24.13C27.58 24.83 27.07 25.44 26.36 25.44Z" fill="#091A33"/>
<path d="M32.63 25.44C31.92 25.44 31.32 24.83 31.32 24.13V20.29C31.32 19.58 31.93 18.98 32.63 18.98C33.33 18.98 33.94 19.59 33.94 20.29V24.13C33.95 24.83 33.34 25.44 32.63 25.44Z" fill="#091A33"/>
<path d="M41.54 46.78H17.46C17.06 46.78 16.55 46.58 16.35 46.17C16.15 45.77 16.15 45.26 16.35 44.96L28.39 23.62C28.59 23.22 29 23.01 29.5 23.01C30 23.01 30.41 23.21 30.61 23.62L42.65 44.86C42.75 45.06 42.85 45.26 42.85 45.57C42.85 46.17 42.24 46.78 41.54 46.78ZM19.58 44.25H39.41L29.5 26.65L19.58 44.25Z" fill="#091A33"/>
<path d="M30.81 42.94H24.44C24.04 42.94 23.53 42.74 23.33 42.33C23.13 41.93 23.13 41.42 23.33 41.12L28.19 32.42C28.49 31.81 29.3 31.61 29.91 31.91C30.52 32.21 30.72 33.02 30.42 33.63L26.58 40.51H30.73C31.44 40.51 32.04 41.12 32.04 41.82C32.04 42.52 31.42 42.94 30.81 42.94Z" fill="#091A33"/>
<path d="M6.73999 22.2C4.61999 22.2 2.89999 20.48 2.89999 18.36C2.89999 16.24 4.61999 14.52 6.73999 14.52C8.85999 14.52 10.58 16.24 10.58 18.36C10.58 20.48 8.85999 22.2 6.73999 22.2ZM6.73999 17.14C6.02999 17.14 5.42001 17.75 5.42001 18.45C5.42001 19.16 6.02999 19.77 6.73999 19.77C7.44999 19.77 8.04999 19.16 8.04999 18.45C8.04999 17.75 7.44999 17.14 6.73999 17.14Z" fill="#091A33"/>
<path d="M33.95 55.78C32.23 55.78 30.81 54.36 30.81 52.64C30.81 50.92 32.23 49.5 33.95 49.5C35.67 49.5 37.09 50.92 37.09 52.64C37.08 54.27 35.67 55.78 33.95 55.78ZM33.95 51.94C33.65 51.94 33.34 52.24 33.34 52.55C33.34 52.85 33.64 53.16 33.95 53.16C34.25 53.16 34.56 52.86 34.56 52.55C34.56 52.24 34.25 51.94 33.95 51.94Z" fill="#091A33"/>
<path d="M50.34 17.14C47.91 17.14 45.89 15.12 45.89 12.69C45.89 10.26 47.91 8.23999 50.34 8.23999C52.77 8.23999 54.79 10.26 54.79 12.69C54.79 15.12 52.76 17.14 50.34 17.14ZM50.34 10.87C49.33 10.87 48.42 11.68 48.42 12.79C48.42 13.9 49.23 14.71 50.34 14.71C51.45 14.71 52.26 13.9 52.26 12.79C52.26 11.68 51.45 10.87 50.34 10.87Z" fill="#091A33"/>
<path d="M49.12 41.82C45.68 41.82 42.75 38.99 42.75 35.45C42.75 31.91 45.58 29.08 49.12 29.08C52.66 29.08 55.49 31.91 55.49 35.45C55.5 38.99 52.56 41.82 49.12 41.82ZM49.12 31.71C47 31.71 45.28 33.43 45.28 35.55C45.28 37.67 47 39.39 49.12 39.39C51.24 39.39 52.96 37.67 52.96 35.55C52.97 33.43 51.15 31.71 49.12 31.71Z" fill="#091A33"/>
<path d="M57.32 54.47H40.93C40.22 54.47 39.62 53.86 39.62 53.15V48.7C39.62 47.38 39.92 46.07 40.43 44.96C41.95 41.52 45.39 39.3 49.13 39.3C51.66 39.3 54.09 40.31 55.81 42.03C57.53 43.75 58.54 46.18 58.54 48.71V53.16C58.63 53.86 58.02 54.47 57.32 54.47ZM42.14 51.94H56.1V48.8C56.1 46.98 55.39 45.16 54.08 43.84C52.77 42.52 51.05 41.82 49.12 41.82C46.39 41.82 43.86 43.44 42.75 45.97C42.35 46.88 42.14 47.79 42.14 48.7V51.94Z" fill="#091A33"/>
<path d="M45.99 54.47C45.28 54.47 44.68 53.86 44.68 53.15V49.41C44.68 48.7 45.29 48.1 45.99 48.1C46.69 48.1 47.3 48.71 47.3 49.41V53.25C47.2 53.86 46.59 54.47 45.99 54.47Z" fill="#091A33"/>
<path d="M52.26 54.47C51.55 54.47 50.95 53.86 50.95 53.15V49.41C50.95 48.7 51.56 48.1 52.26 48.1C52.97 48.1 53.58 48.71 53.58 49.41V53.25C53.57 53.86 52.97 54.47 52.26 54.47Z" fill="#091A33"/>
<path d="M9.87 41.82C6.43 41.82 3.5 38.99 3.5 35.45C3.5 31.91 6.33 29.08 9.87 29.08C13.41 29.08 16.24 31.91 16.24 35.45C16.25 38.99 13.41 41.82 9.87 41.82ZM9.87 31.71C7.75 31.71 6.03 33.43 6.03 35.55C6.03 37.67 7.75 39.39 9.87 39.39C11.99 39.39 13.71 37.67 13.71 35.55C13.72 33.43 12 31.71 9.87 31.71Z" fill="#091A33"/>
<path d="M18.17 54.47H1.67999C0.969993 54.47 0.369995 53.86 0.369995 53.15V48.7C0.369995 43.44 4.62 39.19 9.88 39.19C12.41 39.19 14.84 40.2 16.56 41.92C17.37 42.73 18.08 43.74 18.58 44.85C19.09 46.06 19.39 47.28 19.39 48.59V53.04C19.38 53.86 18.77 54.47 18.17 54.47ZM2.98999 51.94H16.95V48.8C16.95 47.79 16.75 46.88 16.34 46.07C16.04 45.26 15.53 44.55 14.92 43.95C13.6 42.63 11.89 41.93 9.95999 41.93C6.11999 41.93 2.98001 45.07 2.98001 48.91V51.94H2.98999Z" fill="#091A33"/>
<path d="M6.73999 54.47C6.02999 54.47 5.42001 53.86 5.42001 53.15V49.41C5.42001 48.7 6.02999 48.1 6.73999 48.1C7.44999 48.1 8.04999 48.71 8.04999 49.41V53.25C8.04999 53.86 7.44999 54.47 6.73999 54.47Z" fill="#091A33"/>
<path d="M13.11 54.47C12.4 54.47 11.79 53.86 11.79 53.15V49.41C11.79 48.7 12.4 48.1 13.11 48.1C13.82 48.1 14.32 48.71 14.32 49.41V53.25C14.32 53.86 13.72 54.47 13.11 54.47Z" fill="#091A33"/>
</svg>
