<svg width="61" height="56" viewBox="0 0 61 56" fill="none" xmlns="http://www.w3.org/2000/svg">
<path d="M17.88 1.38V12.69L14.14 8.95L10.31 12.69V1.38H17.88Z" fill="#36AD37"/>
<path d="M39.07 10.17C34.33 10.17 30.49 14 30.49 18.75V49.33C30.49 45.8 33.32 42.97 36.85 42.97H54.51V10.17H39.07Z" fill="#36AD37"/>
<path d="M49.47 27.83V37.92H35.54V27.83H49.47ZM41.19 34.19L43.71 32.88L41.19 31.57V34.19Z" fill="white"/>
<path d="M41.19 35.4C40.99 35.4 40.69 35.3 40.48 35.2C40.08 35 39.87 34.59 39.87 34.09V31.57C39.87 31.17 40.07 30.76 40.48 30.46C40.88 30.16 41.29 30.26 41.69 30.36L44.21 31.67C44.61 31.87 44.92 32.28 44.92 32.78C44.92 33.28 44.62 33.69 44.21 33.89L41.69 35.2C41.6 35.4 41.39 35.4 41.19 35.4Z" fill="#091A33"/>
<path d="M6.57001 44.28C5.86001 44.28 5.25999 43.67 5.25999 42.97V10.17C5.25999 9.46001 5.87001 8.86002 6.57001 8.86002C7.28001 8.86002 7.78 9.47001 7.78 10.17V42.97C7.78 43.68 7.18001 44.28 6.57001 44.28Z" fill="#091A33"/>
<path d="M30.49 20.06C29.78 20.06 29.18 19.45 29.18 18.75C29.18 14.71 25.85 11.38 21.81 11.38C21.1 11.38 20.5 10.77 20.5 10.07C20.5 9.36002 21.11 8.76001 21.81 8.76001C27.26 8.76001 31.7 13.2 31.7 18.65C31.8 19.45 31.2 20.06 30.49 20.06Z" fill="#091A33"/>
<path d="M30.49 50.54C29.78 50.54 29.18 49.93 29.18 49.23V18.75C29.18 13.3 33.62 8.86002 39.07 8.86002H54.51C55.22 8.86002 55.82 9.47001 55.82 10.17V42.97C55.82 43.68 55.21 44.28 54.51 44.28C53.8 44.28 53.2 43.67 53.2 42.97V11.48H39.07C35.03 11.48 31.7 14.81 31.7 18.85V49.43C31.8 49.93 31.2 50.54 30.49 50.54Z" fill="#091A33"/>
<path d="M49.47 39.23H35.54C34.83 39.23 34.23 38.62 34.23 37.92V27.83C34.23 27.12 34.84 26.52 35.54 26.52H49.47C50.18 26.52 50.78 27.13 50.78 27.83V37.92C50.68 38.63 50.07 39.23 49.47 39.23ZM36.85 36.71H48.15V29.14H36.85V36.71Z" fill="#091A33"/>
<path d="M49.47 22.78H35.54C34.83 22.78 34.23 22.17 34.23 21.47C34.23 20.76 34.84 20.16 35.54 20.16H49.47C50.18 20.16 50.78 20.77 50.78 21.47C50.68 22.18 50.07 22.78 49.47 22.78Z" fill="#091A33"/>
<path d="M49.47 19.05H35.54C34.83 19.05 34.23 18.44 34.23 17.74C34.23 17.03 34.84 16.43 35.54 16.43H49.47C50.18 16.43 50.78 17.04 50.78 17.74C50.68 18.44 50.07 19.05 49.47 19.05Z" fill="#091A33"/>
<path d="M59.56 55.59H34.33C33.93 55.59 33.52 55.39 33.32 55.09L29.48 50.04C29.08 49.43 29.18 48.73 29.78 48.22C30.39 47.82 31.09 47.92 31.6 48.52L35.03 53.06H58.24V16.52C58.24 15.81 58.85 15.21 59.55 15.21C60.26 15.21 60.86 15.82 60.86 16.52V54.37C60.77 54.98 60.17 55.59 59.56 55.59Z" fill="#091A33"/>
<path d="M26.76 55.59H1.53C0.819999 55.59 0.220001 54.98 0.220001 54.28V16.53C0.220001 15.82 0.829999 15.22 1.53 15.22C2.24 15.22 2.84 15.83 2.84 16.53V53.17H26.16L29.59 48.63C29.99 48.02 30.8 47.92 31.41 48.33C32.02 48.73 32.12 49.54 31.71 50.15L27.87 55.2C27.46 55.38 27.06 55.59 26.76 55.59Z" fill="#091A33"/>
<path d="M54.51 50.54H30.49C29.78 50.54 29.18 49.93 29.18 49.23C29.18 45.09 32.61 41.66 36.75 41.66H54.41C55.12 41.66 55.72 42.27 55.72 42.97V49.33C55.73 49.93 55.12 50.54 54.51 50.54ZM31.91 48.01H53.21V44.18H36.86C34.43 44.28 32.51 45.8 31.91 48.01Z" fill="#091A33"/>
<path d="M30.49 50.54H6.57001C5.86001 50.54 5.25999 49.93 5.25999 49.23V42.87C5.25999 42.16 5.87001 41.56 6.57001 41.56H24.23C26.25 41.56 28.17 42.37 29.58 43.78C30.99 45.19 31.8 47.11 31.8 49.13C31.8 49.93 31.2 50.54 30.49 50.54ZM7.78 48.01H29.08C28.88 47.1 28.37 46.4 27.77 45.69C26.86 44.78 25.55 44.18 24.24 44.18H7.78999V48.01H7.78Z" fill="#091A33"/>
<path d="M20.4 19.05H11.52C10.81 19.05 10.21 18.44 10.21 17.74C10.21 17.03 10.82 16.43 11.52 16.43H20.4C21.11 16.43 21.71 17.04 21.71 17.74C21.71 18.44 21.11 19.05 20.4 19.05Z" fill="#091A33"/>
<path d="M25.45 19.05H24.14C23.43 19.05 22.83 18.44 22.83 17.74C22.83 17.03 23.44 16.43 24.14 16.43H25.45C26.16 16.43 26.76 17.04 26.76 17.74C26.76 18.44 26.15 19.05 25.45 19.05Z" fill="#091A33"/>
<path d="M20.4 22.78H11.52C10.81 22.78 10.21 22.17 10.21 21.47C10.21 20.76 10.82 20.16 11.52 20.16H20.4C21.11 20.16 21.71 20.77 21.71 21.47C21.71 22.18 21.11 22.78 20.4 22.78Z" fill="#091A33"/>
<path d="M25.45 22.78H24.14C23.43 22.78 22.83 22.17 22.83 21.47C22.83 20.76 23.44 20.16 24.14 20.16H25.45C26.16 20.16 26.76 20.77 26.76 21.47C26.76 22.18 26.15 22.78 25.45 22.78Z" fill="#091A33"/>
<path d="M20.4 26.62H11.52C10.81 26.62 10.21 26.01 10.21 25.31C10.21 24.6 10.82 24 11.52 24H20.4C21.11 24 21.71 24.61 21.71 25.31C21.71 26.01 21.11 26.62 20.4 26.62Z" fill="#091A33"/>
<path d="M25.45 26.62H24.14C23.43 26.62 22.83 26.01 22.83 25.31C22.83 24.6 23.44 24 24.14 24H25.45C26.16 24 26.76 24.61 26.76 25.31C26.76 26.01 26.15 26.62 25.45 26.62Z" fill="#091A33"/>
<path d="M20.4 30.35H11.52C10.81 30.35 10.21 29.74 10.21 29.04C10.21 28.33 10.82 27.73 11.52 27.73H20.4C21.11 27.73 21.71 28.34 21.71 29.04C21.71 29.75 21.11 30.35 20.4 30.35Z" fill="#091A33"/>
<path d="M25.45 30.35H24.14C23.43 30.35 22.83 29.74 22.83 29.04C22.83 28.33 23.44 27.73 24.14 27.73H25.45C26.16 27.73 26.76 28.34 26.76 29.04C26.76 29.75 26.15 30.35 25.45 30.35Z" fill="#091A33"/>
<path d="M17.88 14C17.58 14 17.27 13.9 16.97 13.6L14.04 10.67L11.11 13.6C10.71 14 10.2 14.1 9.7 13.9C9.2 13.7 8.89 13.29 8.89 12.69V1.39001C8.89 0.680015 9.5 0.0800171 10.2 0.0800171H17.87C18.58 0.0800171 19.18 0.690015 19.18 1.39001V12.8C19.18 13.3 18.88 13.81 18.37 14.01C18.18 13.9 18.08 14 17.88 14ZM14.14 7.64001C14.44 7.64001 14.75 7.74001 15.05 8.04001L16.66 9.66002V2.59001H11.61V9.66002L13.22 8.04001C13.43 7.74001 13.74 7.64001 14.14 7.64001Z" fill="#091A33"/>
</svg>
