<svg width="58" height="52" viewBox="0 0 58 52" fill="none" xmlns="http://www.w3.org/2000/svg">
<path d="M53.03 3.31C54.75 3.31 56.17 4.73001 56.17 6.45001C56.17 8.17001 54.75 9.59 53.03 9.59C51.31 9.59 49.89 8.28001 49.89 6.45001C49.89 4.63001 51.31 3.31 53.03 3.31Z" fill="white"/>
<path d="M4.37 32.45C5.79 32.45 6.89999 33.56 6.89999 34.98C6.89999 36.4 5.79 37.51 4.37 37.51C2.95 37.51 1.84 36.4 1.84 34.98C1.84 33.56 2.96 32.45 4.37 32.45Z" fill="white"/>
<path d="M51.21 38.72C52.63 38.72 53.74 39.83 53.74 41.25C53.74 42.67 52.63 43.78 51.21 43.78C49.79 43.78 48.68 42.67 48.68 41.25C48.68 39.83 49.79 38.72 51.21 38.72Z" fill="white"/>
<path d="M11.96 28.1L25.82 36.7C26.63 37.21 27.64 37.21 28.45 36.7L42.31 28.1C42.31 30.63 42.31 40.54 42.31 42.26C42.31 43.78 41.1 45.09 39.48 45.09H14.8C13.28 45.09 11.97 43.88 11.97 42.26C11.96 40.44 11.96 30.52 11.96 28.1Z" fill="white"/>
<path d="M50.2 18.89C51.82 19.9 51.82 22.23 50.2 23.24C50.1 23.34 28.55 36.69 28.45 36.69C27.64 37.2 26.63 37.2 25.82 36.69C25.82 36.69 4.27001 23.34 4.07001 23.24C2.45001 22.23 2.45001 19.9 4.07001 18.89L25.82 5.44C26.63 4.93 27.64 4.93 28.45 5.44L50.2 18.89Z" fill="#36AD37"/>
<path d="M54.95 13.43C55.66 13.43 56.26 14.04 56.26 14.75C56.26 15.46 55.65 16.06 54.95 16.06C54.24 16.06 53.63 15.45 53.63 14.75C53.74 14.04 54.24 13.43 54.95 13.43Z" fill="#091A33"/>
<path d="M47.37 47.62C48.08 47.62 48.68 48.23 48.68 48.94C48.68 49.65 48.07 50.25 47.37 50.25C46.66 50.25 46.05 49.64 46.05 48.94C46.15 48.13 46.66 47.62 47.37 47.62Z" fill="#091A33"/>
<path d="M37.25 0.779999C37.96 0.779999 38.57 1.39001 38.57 2.10001C38.57 2.81001 37.96 3.41 37.25 3.41C36.54 3.41 35.94 2.80001 35.94 2.10001C36.04 1.39001 36.54 0.779999 37.25 0.779999Z" fill="#091A33"/>
<path d="M24.61 10.9C25.32 10.9 25.93 11.51 25.93 12.22C25.93 12.93 25.32 13.54 24.61 13.54C23.9 13.54 23.29 12.93 23.29 12.22C23.39 11.51 23.9 10.9 24.61 10.9Z" fill="#091A33"/>
<path d="M17.02 48.83C17.73 48.83 18.34 49.44 18.34 50.15C18.34 50.86 17.73 51.47 17.02 51.47C16.31 51.47 15.7 50.86 15.7 50.15C15.8 49.44 16.31 48.83 17.02 48.83Z" fill="#091A33"/>
<path d="M14.49 0.779999C15.2 0.779999 15.81 1.39001 15.81 2.10001C15.81 2.81001 15.2 3.41 14.49 3.41C13.78 3.41 13.18 2.80001 13.18 2.10001C13.28 1.39001 13.78 0.779999 14.49 0.779999Z" fill="#091A33"/>
<path d="M3.16 45.09C3.87 45.09 4.48 45.7 4.48 46.41C4.48 47.12 3.87 47.72 3.16 47.72C2.45 47.72 1.85 47.11 1.85 46.41C1.84 45.6 2.45 45.09 3.16 45.09Z" fill="#091A33"/>
<path d="M1.84 8.37C2.55 8.37 3.14999 8.98 3.14999 9.69C3.14999 10.4 2.54 10.9 1.84 10.9C1.13 10.9 0.519997 10.29 0.519997 9.59C0.629997 8.98 1.14 8.37 1.84 8.37Z" fill="#091A33"/>
<path d="M39.58 46.3H14.8C12.57 46.3 10.75 44.48 10.75 42.25C10.75 41.54 11.36 40.94 12.06 40.94C12.77 40.94 13.37 41.55 13.37 42.25C13.37 43.06 14.08 43.77 14.89 43.77H39.67C40.48 43.77 41.19 43.06 41.19 42.25C41.19 41.54 41.8 40.94 42.5 40.94C43.21 40.94 43.82 41.55 43.82 42.25C43.62 44.48 41.8 46.3 39.58 46.3Z" fill="#091A33"/>
<path d="M27.13 38.31C26.42 38.31 25.71 38.11 25.11 37.7L3.36 24.25C2.25 23.54 1.54 22.33 1.54 21.01C1.54 19.69 2.25 18.48 3.36 17.77L25.11 4.32001C25.72 3.92001 26.42 3.70999 27.13 3.70999C27.84 3.70999 28.55 3.91001 29.15 4.32001L50.9 17.77C52.01 18.48 52.72 19.69 52.72 21.01C52.72 22.32 52.01 23.54 50.9 24.25L29.15 37.7C28.55 38.11 27.84 38.31 27.13 38.31ZM27.13 6.25C26.93 6.25 26.62 6.35001 26.42 6.45001L4.77 19.9C4.26 20.2 4.16 20.81 4.16 21.01C4.16 21.21 4.26 21.72 4.77 22.12L26.52 35.57C26.92 35.77 27.43 35.77 27.83 35.57L49.58 22.12C50.09 21.82 50.19 21.21 50.19 21.01C50.19 20.81 50.09 20.3 49.58 19.9L27.83 6.45001C27.64 6.35001 27.34 6.25 27.13 6.25Z" fill="#091A33"/>
<path d="M51.21 40.03C50.5 40.03 49.9 39.42 49.9 38.72V22.33C49.9 21.62 50.51 21.02 51.21 21.02C51.92 21.02 52.53 21.63 52.53 22.33V38.82C52.42 39.43 51.82 40.03 51.21 40.03Z" fill="#091A33"/>
<path d="M51.21 45.09C49.09 45.09 47.37 43.37 47.37 41.25C47.37 39.13 49.09 37.41 51.21 37.41C53.33 37.41 54.95 39.13 54.95 41.25C54.95 43.37 53.23 45.09 51.21 45.09ZM51.21 40.03C50.5 40.03 49.9 40.64 49.9 41.34C49.9 42.05 50.51 42.66 51.21 42.66C51.92 42.66 52.53 42.05 52.53 41.34C52.42 40.54 51.82 40.03 51.21 40.03Z" fill="#091A33"/>
<path d="M10.75 22.33C10.35 22.33 9.94001 22.13 9.64001 21.72C9.24001 21.11 9.44 20.3 10.04 20L20.16 13.63C20.77 13.23 21.58 13.43 21.88 14.03C22.28 14.64 22.08 15.45 21.48 15.75L11.36 22.12C11.15 22.23 10.95 22.33 10.75 22.33Z" fill="#091A33"/>
<path d="M4.37 38.72C2.25 38.72 0.529999 37 0.529999 34.88C0.529999 32.76 2.25 31.14 4.37 31.14C6.49 31.14 8.21001 32.86 8.21001 34.98C8.22001 37.1 6.5 38.72 4.37 38.72ZM4.37 33.66C3.66 33.66 3.06 34.27 3.06 34.98C3.06 35.69 3.67 36.19 4.37 36.19C5.08 36.19 5.67999 35.58 5.67999 34.87C5.68999 34.17 5.08 33.66 4.37 33.66Z" fill="#091A33"/>
<path d="M53.03 10.9C50.6 10.9 48.58 8.88001 48.58 6.45001C48.58 4.02001 50.6 2 53.03 2C55.46 2 57.48 4.02001 57.48 6.45001C57.48 8.88001 55.46 10.9 53.03 10.9ZM53.03 4.63C52.02 4.63 51.11 5.43999 51.11 6.54999C51.11 7.65999 51.92 8.47 53.03 8.47C54.14 8.47 54.95 7.65999 54.95 6.54999C54.95 5.43999 54.14 4.63 53.03 4.63Z" fill="#091A33"/>
<path d="M42.31 43.57C41.6 43.57 40.99 42.96 40.99 42.25V28.1C40.99 27.39 41.6 26.78 42.31 26.78C43.02 26.78 43.62 27.39 43.62 28.1V42.26C43.62 42.97 43.02 43.57 42.31 43.57Z" fill="#091A33"/>
<path d="M11.96 43.57C11.25 43.57 10.65 42.96 10.65 42.25V28.1C10.65 27.39 11.26 26.78 11.96 26.78C12.67 26.78 13.28 27.39 13.28 28.1V42.26C13.28 42.97 12.67 43.57 11.96 43.57Z" fill="#091A33"/>
</svg>
