<svg width="61" height="59" viewBox="0 0 61 59" fill="none" xmlns="http://www.w3.org/2000/svg">
<path d="M50.16 30.98C49.55 30.88 48.95 30.78 48.24 30.78C42.27 30.78 37.52 35.64 37.52 41.5C37.52 47.37 42.38 52.22 48.24 52.22C48.85 52.22 49.56 52.12 50.16 52.02C55.22 51.11 58.96 46.76 58.96 41.4C58.96 36.04 55.22 31.89 50.16 30.98Z" fill="white"/>
<path d="M41.36 10.65V1.75H9.70001V57.39H50.16V52.13C49.55 52.23 48.95 52.33 48.24 52.33C42.27 52.33 37.52 47.47 37.52 41.61C37.52 35.74 42.38 30.89 48.24 30.89C48.85 30.89 49.56 30.99 50.16 31.09V25.43V10.66H41.36V10.65Z" fill="#36AD37"/>
<path d="M35.09 8.12H16.07V14.49H35.09V8.12Z" fill="white"/>
<path d="M41.36 1.75C44.8 5.19 46.72 7.10999 50.26 10.65H41.36V1.75Z" fill="white"/>
<path d="M3.42999 39.68C4.82999 39.68 5.95999 40.81 5.95999 42.21C5.95999 43.61 4.82999 44.74 3.42999 44.74C2.02999 44.74 0.899994 43.61 0.899994 42.21C0.899994 40.81 2.02999 39.68 3.42999 39.68Z" fill="white"/>
<path d="M55.83 1.75C57.56 1.75 58.97 3.15 58.97 4.89C58.97 6.62 57.57 8.03 55.83 8.03C54.1 8.03 52.69 6.63 52.69 4.89C52.69 3.15 54.09 1.75 55.83 1.75Z" fill="white"/>
<path d="M44.8 40.59L46.22 42.01L50.47 37.76C51.28 36.95 52.49 36.95 53.3 37.76C54.11 38.57 54.11 39.78 53.3 40.59L49.05 44.84L46.22 47.77L43.39 44.94L41.97 43.52C41.16 42.71 41.16 41.5 41.97 40.69C42.68 39.78 43.99 39.78 44.8 40.59Z" fill="#36AD37"/>
<path d="M56.84 17.33C57.04 17.53 57.25 17.83 57.25 18.24C57.25 18.64 57.15 18.95 56.84 19.15C56.54 19.35 56.23 19.45 55.93 19.45C55.22 19.45 54.61 18.84 54.61 18.13C54.61 17.83 54.71 17.42 55.02 17.22C55.22 17.02 55.53 16.82 55.93 16.82C56.33 16.82 56.64 17.02 56.84 17.33Z" fill="#091A33"/>
<path d="M7.47 31.18C7.67 31.38 7.87 31.69 7.87 32.09C7.87 32.5 7.77 32.8 7.47 33C7.17 33.2 6.96 33.41 6.56 33.41C5.85 33.41 5.23999 32.8 5.23999 32.09C5.23999 31.79 5.34001 31.38 5.64001 31.18C5.94001 30.98 6.14999 30.78 6.54999 30.78C6.96999 30.78 7.27 30.98 7.47 31.18Z" fill="#091A33"/>
<path d="M6.26001 10.95C6.46001 11.15 6.66 11.46 6.66 11.86C6.66 12.26 6.56001 12.57 6.26001 12.77C5.96001 12.97 5.75001 13.18 5.35001 13.18C4.64001 13.18 4.03 12.57 4.03 11.86C4.03 11.56 4.12999 11.15 4.42999 10.95C4.62999 10.75 4.94 10.54 5.34 10.54C5.76 10.55 6.06001 10.75 6.26001 10.95Z" fill="#091A33"/>
<path d="M50.87 11.86H41.97C41.26 11.86 40.65 11.25 40.65 10.54V1.64C40.65 0.929999 41.26 0.320007 41.97 0.320007C42.68 0.320007 43.29 0.929999 43.29 1.64V9.33H50.88C51.59 9.33 52.19 9.93999 52.19 10.65C52.19 11.26 51.58 11.86 50.87 11.86Z" fill="#091A33"/>
<path d="M50.87 58.7H10.41C9.7 58.7 9.09 58.09 9.09 57.38V1.74001C9.09 1.03001 9.7 0.429993 10.41 0.429993H42.07C42.37 0.429993 42.68 0.530002 42.98 0.830002L51.88 9.73C52.08 9.93 52.29 10.34 52.29 10.64V31.07C52.29 31.78 51.68 32.39 50.97 32.39C50.26 32.39 49.66 31.78 49.66 31.18V11.15L41.57 3.06H11.73V56.17H49.66V52.22C49.66 51.51 50.27 50.9 50.97 50.9C51.67 50.9 52.29 51.51 52.29 52.11V57.37C52.19 58.09 51.58 58.7 50.87 58.7Z" fill="#091A33"/>
<path d="M46.93 48.99C46.63 48.99 46.32 48.89 46.02 48.59L41.77 44.34C40.45 43.03 40.45 41 41.77 39.69C42.38 39.08 43.19 38.68 44.1 38.68C45.01 38.68 45.82 38.98 46.43 39.69L46.94 40.2L50.38 36.76C50.99 36.15 51.8 35.75 52.71 35.75C53.62 35.75 54.43 36.05 55.04 36.76C56.35 38.08 56.35 40.1 55.04 41.41L47.86 48.69C47.53 48.89 47.23 48.99 46.93 48.99ZM43.99 41.3C43.79 41.3 43.58 41.4 43.48 41.5C43.18 41.8 43.18 42.31 43.48 42.61L46.92 46.05L53.19 39.78C53.49 39.48 53.49 38.97 53.19 38.67C53.09 38.57 52.89 38.47 52.68 38.47C52.48 38.47 52.28 38.57 52.17 38.67L47.82 42.92C47.31 43.43 46.5 43.43 46 42.92L44.58 41.5C44.4 41.4 44.2 41.3 43.99 41.3Z" fill="#091A33"/>
<path d="M48.95 53.64C42.37 53.64 36.91 48.28 36.91 41.6C36.91 34.92 42.37 29.56 48.95 29.56C49.66 29.56 50.37 29.66 51.08 29.76C56.85 30.77 60.99 35.73 60.99 41.59C60.99 47.46 56.84 52.41 51.08 53.43C50.37 53.54 49.66 53.64 48.95 53.64ZM48.95 32.09C43.69 32.09 39.44 36.34 39.44 41.6C39.44 46.86 43.69 51.11 48.95 51.11C49.56 51.11 50.06 51.11 50.67 51.01C55.22 50.2 58.46 46.26 58.46 41.7C58.46 37.15 55.22 33.2 50.67 32.39C50.06 32.09 49.56 32.09 48.95 32.09Z" fill="#091A33"/>
<path d="M35.7 15.71H16.78C16.07 15.71 15.46 15.1 15.46 14.4V8.03001C15.46 7.32001 16.07 6.71002 16.78 6.71002H35.7C36.41 6.71002 37.01 7.32001 37.01 8.03001V14.4C37.01 15.1 36.41 15.71 35.7 15.71ZM18 13.18H34.49V9.34001H18V13.18Z" fill="#091A33"/>
<path d="M24.37 20.77H16.78C16.07 20.77 15.46 20.16 15.46 19.45C15.46 18.74 16.07 18.13 16.78 18.13H24.37C25.08 18.13 25.69 18.74 25.69 19.45C25.58 20.16 24.97 20.77 24.37 20.77Z" fill="#091A33"/>
<path d="M30.64 25.82H16.78C16.07 25.82 15.46 25.21 15.46 24.5C15.46 23.79 16.07 23.19 16.78 23.19H30.64C31.35 23.19 31.96 23.8 31.96 24.5C31.96 25.2 31.35 25.82 30.64 25.82Z" fill="#091A33"/>
<path d="M28.11 30.88H16.78C16.07 30.88 15.46 30.27 15.46 29.57C15.46 28.86 16.07 28.25 16.78 28.25H28.21C28.92 28.25 29.53 28.86 29.53 29.57C29.43 30.27 28.82 30.88 28.11 30.88Z" fill="#091A33"/>
<path d="M34.48 34.62H16.78C16.07 34.62 15.46 34.01 15.46 33.3C15.46 32.59 16.07 31.99 16.78 31.99H34.48C35.19 31.99 35.79 32.6 35.79 33.3C35.79 34 35.09 34.62 34.48 34.62Z" fill="#091A33"/>
<path d="M34.48 38.47H16.78C16.07 38.47 15.46 37.86 15.46 37.16C15.46 36.45 16.07 35.84 16.78 35.84H34.48C35.19 35.84 35.79 36.45 35.79 37.16C35.8 37.86 35.09 38.47 34.48 38.47Z" fill="#091A33"/>
<path d="M23.05 52.33H16.68C15.97 52.33 15.37 51.72 15.37 51.01C15.37 50.3 15.98 49.69 16.68 49.69H23.05C23.76 49.69 24.37 50.3 24.37 51.01C24.37 51.72 23.76 52.33 23.05 52.33Z" fill="#091A33"/>
<path d="M4.14001 46.05C2.01001 46.05 0.299988 44.33 0.299988 42.21C0.299988 40.09 2.02001 38.37 4.14001 38.37C6.26001 38.37 7.98001 40.09 7.98001 42.21C7.98001 44.34 6.16001 46.05 4.14001 46.05ZM4.14001 41C3.43001 41 2.82001 41.61 2.82001 42.31C2.82001 43.02 3.43001 43.63 4.14001 43.63C4.85001 43.63 5.45001 43.02 5.45001 42.31C5.45001 41.6 4.74001 41 4.14001 41Z" fill="#091A33"/>
<path d="M56.54 9.33C54.11 9.33 52.09 7.31001 52.09 4.88C52.09 2.45 54.11 0.429993 56.54 0.429993C58.97 0.429993 60.99 2.45 60.99 4.88C60.99 7.31001 58.97 9.33 56.54 9.33ZM56.54 3.06C55.53 3.06 54.62 3.87 54.62 4.98C54.62 6.09 55.43 6.89999 56.54 6.89999C57.55 6.89999 58.46 6.09 58.46 4.98C58.46 3.87 57.65 3.06 56.54 3.06Z" fill="#091A33"/>
</svg>
