<?xml version="1.0" standalone="no"?>
<!DOCTYPE svg PUBLIC "-//W3C//DTD SVG 20010904//EN"
 "http://www.w3.org/TR/2001/REC-SVG-20010904/DTD/svg10.dtd">
<svg version="1.0" xmlns="http://www.w3.org/2000/svg"
 width="159.000000pt" height="159.000000pt" viewBox="0 0 159.000000 159.000000"
 preserveAspectRatio="xMidYMid meet">
<metadata>
Created by potrace 1.14, written by Peter Selinger 2001-2017
</metadata>
<g transform="translate(0.000000,159.000000) scale(0.100000,-0.100000)"
fill="#000000" stroke="none">
<path d="M988 1456 c-154 -54 -239 -179 -242 -356 l-1 -75 109 0 108 0 2 66
c3 80 27 127 78 152 32 16 65 18 230 19 106 1 200 3 209 5 31 9 49 58 49 137
l0 77 -238 -1 c-221 -1 -243 -3 -304 -24z"/>
<path d="M326 929 c-63 -15 -153 -68 -202 -121 -193 -206 -132 -529 124 -655
l76 -38 291 -3 291 -3 27 25 c15 14 27 35 28 48 0 13 1 139 1 281 l1 257 126
1 c69 0 181 0 249 0 99 -1 129 2 152 16 35 20 40 37 40 131 l0 72 -582 -1
c-321 -1 -600 -5 -622 -10z m413 -214 c3 -3 5 -91 6 -195 0 -184 0 -190 -20
-191 -11 0 -93 -1 -183 0 -145 0 -167 2 -205 21 -140 70 -141 272 -2 348 18
10 63 19 115 22 99 6 281 3 289 -5z"/>
</g>
</svg>
